<svg width="129" height="24" viewBox="0 0 129 24" fill="none" xmlns="http://www.w3.org/2000/svg">
<path d="M7.968 19.192C6.576 19.192 5.336 18.912 4.248 18.352C3.16 17.776 2.304 16.984 1.68 15.976C1.072 14.968 0.768 13.824 0.768 12.544C0.768 11.248 1.072 10.104 1.68 9.112C2.304 8.104 3.16 7.32 4.248 6.76C5.336 6.184 6.576 5.896 7.968 5.896C9.328 5.896 10.512 6.184 11.52 6.76C12.528 7.32 13.272 8.128 13.752 9.184L10.848 10.744C10.512 10.136 10.088 9.688 9.576 9.4C9.08 9.112 8.536 8.968 7.944 8.968C7.304 8.968 6.728 9.112 6.216 9.4C5.704 9.688 5.296 10.096 4.992 10.624C4.704 11.152 4.56 11.792 4.56 12.544C4.56 13.296 4.704 13.936 4.992 14.464C5.296 14.992 5.704 15.4 6.216 15.688C6.728 15.976 7.304 16.12 7.944 16.12C8.536 16.12 9.08 15.984 9.576 15.712C10.088 15.424 10.512 14.968 10.848 14.344L13.752 15.928C13.272 16.968 12.528 17.776 11.52 18.352C10.512 18.912 9.328 19.192 7.968 19.192ZM15.9077 19V6.088H19.4837V9.736L18.9797 8.68C19.3637 7.768 19.9797 7.08 20.8277 6.616C21.6757 6.136 22.7077 5.896 23.9237 5.896V9.352C23.7637 9.336 23.6197 9.328 23.4917 9.328C23.3637 9.312 23.2277 9.304 23.0837 9.304C22.0597 9.304 21.2277 9.6 20.5877 10.192C19.9637 10.768 19.6517 11.672 19.6517 12.904V19H15.9077ZM32.4641 19.192C30.9921 19.192 29.6961 18.904 28.5761 18.328C27.4721 17.752 26.6161 16.968 26.0081 15.976C25.4001 14.968 25.0961 13.824 25.0961 12.544C25.0961 11.248 25.3921 10.104 25.9841 9.112C26.5921 8.104 27.4161 7.32 28.4561 6.76C29.4961 6.184 30.6721 5.896 31.9841 5.896C33.2481 5.896 34.3841 6.168 35.3921 6.712C36.4161 7.24 37.2241 8.008 37.8161 9.016C38.4081 10.008 38.7041 11.2 38.7041 12.592C38.7041 12.736 38.6961 12.904 38.6801 13.096C38.6641 13.272 38.6481 13.44 38.6321 13.6H28.1441V11.416H36.6641L35.2241 12.064C35.2241 11.392 35.0881 10.808 34.8161 10.312C34.5441 9.816 34.1681 9.432 33.6881 9.16C33.2081 8.872 32.6481 8.728 32.0081 8.728C31.3681 8.728 30.8001 8.872 30.3041 9.16C29.8241 9.432 29.4481 9.824 29.1761 10.336C28.9041 10.832 28.7681 11.424 28.7681 12.112V12.688C28.7681 13.392 28.9201 14.016 29.2241 14.56C29.5441 15.088 29.9841 15.496 30.5441 15.784C31.1201 16.056 31.7921 16.192 32.5601 16.192C33.2481 16.192 33.8481 16.088 34.3601 15.88C34.8881 15.672 35.3681 15.36 35.8001 14.944L37.7921 17.104C37.2001 17.776 36.4561 18.296 35.5601 18.664C34.6641 19.016 33.6321 19.192 32.4641 19.192ZM48.7652 19V16.48L48.5252 15.928V11.416C48.5252 10.616 48.2772 9.992 47.7812 9.544C47.3012 9.096 46.5572 8.872 45.5492 8.872C44.8612 8.872 44.1812 8.984 43.5092 9.208C42.8532 9.416 42.2932 9.704 41.8292 10.072L40.4852 7.456C41.1892 6.96 42.0372 6.576 43.0292 6.304C44.0212 6.032 45.0292 5.896 46.0532 5.896C48.0212 5.896 49.5492 6.36 50.6372 7.288C51.7252 8.216 52.2692 9.664 52.2692 11.632V19H48.7652ZM44.8292 19.192C43.8212 19.192 42.9572 19.024 42.2372 18.688C41.5172 18.336 40.9652 17.864 40.5812 17.272C40.1972 16.68 40.0052 16.016 40.0052 15.28C40.0052 14.512 40.1892 13.84 40.5572 13.264C40.9412 12.688 41.5412 12.24 42.3572 11.92C43.1732 11.584 44.2372 11.416 45.5492 11.416H48.9812V13.6H45.9572C45.0772 13.6 44.4692 13.744 44.1332 14.032C43.8132 14.32 43.6532 14.68 43.6532 15.112C43.6532 15.592 43.8372 15.976 44.2052 16.264C44.5892 16.536 45.1092 16.672 45.7652 16.672C46.3892 16.672 46.9492 16.528 47.4452 16.24C47.9412 15.936 48.3012 15.496 48.5252 14.92L49.1012 16.648C48.8292 17.48 48.3332 18.112 47.6132 18.544C46.8932 18.976 45.9652 19.192 44.8292 19.192ZM60.9377 19.192C59.4177 19.192 58.2337 18.808 57.3857 18.04C56.5377 17.256 56.1137 16.096 56.1137 14.56V3.232H59.8577V14.512C59.8577 15.056 60.0017 15.48 60.2897 15.784C60.5777 16.072 60.9697 16.216 61.4657 16.216C62.0577 16.216 62.5617 16.056 62.9777 15.736L63.9857 18.376C63.6017 18.648 63.1377 18.856 62.5937 19C62.0657 19.128 61.5137 19.192 60.9377 19.192ZM54.1217 9.256V6.376H63.0737V9.256H54.1217ZM66.0874 19V6.088H69.8314V19H66.0874ZM67.9594 4.288C67.2714 4.288 66.7114 4.088 66.2794 3.688C65.8474 3.288 65.6314 2.792 65.6314 2.2C65.6314 1.608 65.8474 1.112 66.2794 0.711999C66.7114 0.311999 67.2714 0.111999 67.9594 0.111999C68.6474 0.111999 69.2074 0.303999 69.6394 0.688C70.0714 1.056 70.2874 1.536 70.2874 2.128C70.2874 2.752 70.0714 3.272 69.6394 3.688C69.2234 4.088 68.6634 4.288 67.9594 4.288ZM76.8101 19L71.3861 6.088H75.2501L79.7621 17.2H77.8421L82.5221 6.088H86.1221L80.6741 19H76.8101ZM93.7063 19.192C92.2343 19.192 90.9383 18.904 89.8183 18.328C88.7143 17.752 87.8583 16.968 87.2503 15.976C86.6423 14.968 86.3383 13.824 86.3383 12.544C86.3383 11.248 86.6343 10.104 87.2263 9.112C87.8343 8.104 88.6583 7.32 89.6983 6.76C90.7383 6.184 91.9143 5.896 93.2263 5.896C94.4903 5.896 95.6263 6.168 96.6343 6.712C97.6583 7.24 98.4663 8.008 99.0583 9.016C99.6503 10.008 99.9463 11.2 99.9463 12.592C99.9463 12.736 99.9383 12.904 99.9223 13.096C99.9063 13.272 99.8903 13.44 99.8743 13.6H89.3863V11.416H97.9063L96.4663 12.064C96.4663 11.392 96.3303 10.808 96.0583 10.312C95.7863 9.816 95.4103 9.432 94.9303 9.16C94.4503 8.872 93.8903 8.728 93.2503 8.728C92.6103 8.728 92.0423 8.872 91.5463 9.16C91.0663 9.432 90.6903 9.824 90.4183 10.336C90.1463 10.832 90.0103 11.424 90.0103 12.112V12.688C90.0103 13.392 90.1623 14.016 90.4663 14.56C90.7863 15.088 91.2263 15.496 91.7863 15.784C92.3623 16.056 93.0343 16.192 93.8023 16.192C94.4903 16.192 95.0903 16.088 95.6023 15.88C96.1303 15.672 96.6103 15.36 97.0423 14.944L99.0343 17.104C98.4423 17.776 97.6983 18.296 96.8023 18.664C95.9063 19.016 94.8743 19.192 93.7063 19.192ZM103.855 19.192C103.215 19.192 102.663 18.976 102.199 18.544C101.751 18.096 101.527 17.528 101.527 16.84C101.527 16.152 101.751 15.6 102.199 15.184C102.663 14.752 103.215 14.536 103.855 14.536C104.511 14.536 105.063 14.752 105.511 15.184C105.959 15.6 106.183 16.152 106.183 16.84C106.183 17.528 105.959 18.096 105.511 18.544C105.063 18.976 104.511 19.192 103.855 19.192ZM108.72 19V1.192H112.464V19H108.72ZM117.571 23.848C116.899 23.848 116.235 23.744 115.579 23.536C114.923 23.328 114.387 23.04 113.971 22.672L115.339 20.008C115.627 20.264 115.955 20.464 116.323 20.608C116.707 20.752 117.083 20.824 117.451 20.824C117.979 20.824 118.395 20.696 118.699 20.44C119.019 20.2 119.307 19.792 119.563 19.216L120.235 17.632L120.523 17.224L125.155 6.088H128.755L122.923 19.792C122.507 20.832 122.027 21.648 121.483 22.24C120.955 22.832 120.363 23.248 119.707 23.488C119.067 23.728 118.355 23.848 117.571 23.848ZM119.779 19.504L114.019 6.088H117.883L122.347 16.888L119.779 19.504Z" fill="black"/>
</svg>
