<svg width="48" height="48" viewBox="0 0 48 48" fill="none" xmlns="http://www.w3.org/2000/svg">
<path d="M16.7184 4C17.5427 4 18.1904 4.65511 18.1904 5.44509C18.1904 6.02312 18.6811 6.48555 19.2699 6.48555H21.213C24.1766 6.50482 26.5908 8.87476 26.6104 11.7649V12.131C28.475 12.131 30.3395 12.1696 32.2237 12.1888C39.0343 12.1888 44 17.0443 44 23.7495V32.3622C44 39.0674 39.0343 43.9229 32.2237 43.9229C29.4956 43.9807 26.7674 44 24.0196 44C21.2718 44 18.5044 43.9807 15.7763 43.9229C8.96565 43.9229 4 39.0674 4 32.3622V23.7495C4 17.0443 8.96565 12.1888 15.7959 12.1888C18.367 12.1503 20.9971 12.1118 23.6663 12.1118V11.7842C23.6663 10.4547 22.5476 9.37572 21.213 9.37572H19.2699C17.052 9.37572 15.2463 7.60308 15.2463 5.44509C15.2463 4.65511 15.9136 4 16.7184 4ZM18.1708 23.1329C17.3464 23.1329 16.6987 23.7881 16.6987 24.578V26.6012H14.6183C13.8135 26.6012 13.1462 27.2563 13.1462 28.0462C13.1462 28.8555 13.8135 29.4913 14.6183 29.4913H16.6987V31.5337C16.6987 32.3237 17.3464 32.9788 18.1708 32.9788C18.9755 32.9788 19.6428 32.3237 19.6428 31.5337V29.4913H21.7036C22.5083 29.4913 23.1757 28.8555 23.1757 28.0462C23.1757 27.2563 22.5083 26.6012 21.7036 26.6012H19.6428V24.578C19.6428 23.7881 18.9755 23.1329 18.1708 23.1329ZM33.5976 29.973H33.4014C32.5751 29.973 31.9293 30.6281 31.9293 31.4181C31.9293 32.2274 32.5751 32.8632 33.4014 32.8632H33.5976C34.4024 32.8632 35.0697 32.2274 35.0697 31.4181C35.0697 30.6281 34.4024 29.973 33.5976 29.973ZM30.2414 23.3449H30.0451C29.2208 23.3449 28.5731 24 28.5731 24.79C28.5731 25.5992 29.2208 26.2351 30.0451 26.2351H30.2414C31.0461 26.2351 31.7134 25.5992 31.7134 24.79C31.7134 24 31.0461 23.3449 30.2414 23.3449Z" fill="white"/>
</svg>
