<svg width="21" height="21" viewBox="0 0 21 21" fill="none" xmlns="http://www.w3.org/2000/svg">
<path fill-rule="evenodd" clip-rule="evenodd" d="M17.2448 15.85C17.2448 18.5966 13.4782 18.9141 10.6457 18.9141L10.443 18.914C8.63833 18.9096 4.04483 18.7956 4.04483 15.8333C4.04483 13.1427 7.66012 12.7831 10.4711 12.7695L10.8484 12.7693C12.6529 12.7737 17.2448 12.8876 17.2448 15.85ZM10.6457 14.0191C7.09483 14.0191 5.29483 14.6291 5.29483 15.8333C5.29483 17.0483 7.09483 17.6641 10.6457 17.6641C14.1957 17.6641 15.9948 17.0541 15.9948 15.85C15.9948 14.635 14.1957 14.0191 10.6457 14.0191ZM10.6457 2.35547C13.0857 2.35547 15.0698 4.34047 15.0698 6.78047C15.0698 9.22047 13.0857 11.2046 10.6457 11.2046H10.619C8.18399 11.1971 6.2115 9.2113 6.2198 6.77797C6.2198 4.34047 8.20483 2.35547 10.6457 2.35547ZM10.6457 3.54547C8.86149 3.54547 7.40981 4.9963 7.40981 6.78047C7.404 8.5588 8.84483 10.0088 10.6215 10.0155L10.6457 10.6105V10.0155C12.429 10.0155 13.8798 8.5638 13.8798 6.78047C13.8798 4.9963 12.429 3.54547 10.6457 3.54547Z" fill="#2356D9"/>
</svg>
