<svg width="25" height="25" viewBox="0 0 25 25" fill="none" xmlns="http://www.w3.org/2000/svg">
<path d="M18.6651 14.917C18.3953 15.1785 18.2714 15.5566 18.3328 15.9274L19.2589 21.0524C19.337 21.4868 19.1536 21.9264 18.7901 22.1774C18.4339 22.4378 17.9599 22.4691 17.5714 22.2607L12.9578 19.8545C12.7974 19.7691 12.6193 19.7232 12.437 19.718H12.1547C12.0568 19.7326 11.9609 19.7639 11.8734 19.8118L7.25885 22.2295C7.03073 22.3441 6.7724 22.3847 6.51927 22.3441C5.9026 22.2274 5.49115 21.6399 5.59219 21.0201L6.51927 15.8951C6.58073 15.5212 6.45677 15.141 6.18698 14.8753L2.42552 11.2295C2.11094 10.9243 2.00156 10.466 2.14531 10.0524C2.2849 9.63991 2.64115 9.33887 3.07135 9.27116L8.24844 8.52012C8.64219 8.47949 8.98802 8.23991 9.1651 7.88574L11.4464 3.20866C11.5005 3.10449 11.5703 3.00866 11.6547 2.92741L11.7484 2.85449C11.7974 2.80033 11.8536 2.75553 11.9161 2.71908L12.0297 2.67741L12.2068 2.60449H12.6453C13.037 2.64512 13.3818 2.87949 13.562 3.22949L15.8734 7.88574C16.0401 8.22637 16.3641 8.46283 16.738 8.52012L21.9151 9.27116C22.3526 9.33366 22.7182 9.63574 22.863 10.0524C22.9995 10.4701 22.8818 10.9285 22.5609 11.2295L18.6651 14.917Z" fill="#FAD03B"/>
</svg>
