<svg width="21" height="21" viewBox="0 0 21 21" fill="none" xmlns="http://www.w3.org/2000/svg">
<path fill-rule="evenodd" clip-rule="evenodd" d="M10.7116 2.35547C15.3066 2.35547 19.0449 6.0938 19.0449 10.6888C19.0449 15.2838 15.3066 19.0221 10.7116 19.0221C6.11658 19.0221 2.37824 15.2838 2.37824 10.6888C2.37824 6.0938 6.11658 2.35547 10.7116 2.35547ZM10.7116 3.60547C6.80574 3.60547 3.62824 6.78297 3.62824 10.6888C3.62824 14.5946 6.80574 17.7721 10.7116 17.7721C14.6174 17.7721 17.7949 14.5946 17.7949 10.6888C17.7949 6.78297 14.6174 3.60547 10.7116 3.60547ZM10.4292 6.60164C10.7751 6.60164 11.0542 6.88164 11.0542 7.22664V10.9116L13.8917 12.6033C14.1876 12.7808 14.2851 13.1641 14.1084 13.4608C13.9909 13.6566 13.7834 13.7658 13.5709 13.7658C13.4617 13.7658 13.3517 13.7375 13.2509 13.6783L10.1092 11.8041C9.92091 11.6908 9.80424 11.4866 9.80424 11.2666V7.22664C9.80424 6.88164 10.0842 6.60164 10.4292 6.60164Z" fill="#2356D9"/>
</svg>
